<?xml version="1.0" encoding="utf-8"?>
<!-- Generator: Adobe Illustrator 17.0.1, SVG Export Plug-In . SVG Version: 6.00 Build 0)  -->
<!DOCTYPE svg PUBLIC "-//W3C//DTD SVG 1.1//EN" "http://www.w3.org/Graphics/SVG/1.1/DTD/svg11.dtd">
<svg version="1.1" id="Layer_1" xmlns="http://www.w3.org/2000/svg" xmlns:xlink="http://www.w3.org/1999/xlink" x="0px" y="0px"
	 width="255.12px" height="141.73px" viewBox="0 0 255.12 141.73" enable-background="new 0 0 255.12 141.73" xml:space="preserve">
<g id="Layer_2">
	<g id="Layer_3" display="none">
		
			<rect x="135.155" y="27.702" display="inline" fill="none" stroke="#000000" stroke-width="4" stroke-miterlimit="10" width="19.907" height="88.162"/>
		<polygon display="inline" fill="none" stroke="#000000" stroke-width="4" stroke-miterlimit="10" points="136.63,23.683 
			145.109,8.998 153.587,23.683 		"/>
		
			<line display="inline" fill="none" stroke="#000000" stroke-width="4" stroke-miterlimit="10" x1="145.109" y1="28.577" x2="145.109" y2="105.8"/>
		
			<line display="inline" fill="none" stroke="#000000" stroke-width="4" stroke-miterlimit="10" x1="136.481" y1="106.675" x2="154.984" y2="106.675"/>
		
			<line display="inline" fill="none" stroke="#000000" stroke-width="4" stroke-miterlimit="10" x1="135.155" y1="115.863" x2="135.155" y2="121.551"/>
		
			<line display="inline" fill="none" stroke="#000000" stroke-width="4" stroke-miterlimit="10" x1="155.062" y1="115.863" x2="155.062" y2="121.551"/>
		<g display="inline">
			<path fill="none" stroke="#000000" stroke-width="4" stroke-miterlimit="10" d="M137.426,118.618"/>
			<path fill="none" stroke="#000000" stroke-width="4" stroke-miterlimit="10" d="M135.155,121.551
				c0,5.555,4.46,10.058,9.962,10.058s9.962-4.503,9.962-10.058"/>
		</g>
		<rect x="133.154" y="25.662" display="inline" width="23.906" height="2.188"/>
	</g>
	<g id="Layer_4" display="none">
		
			<line display="inline" fill="none" stroke="#000000" stroke-width="4" stroke-miterlimit="10" x1="59.727" y1="38.365" x2="195.727" y2="38.365"/>
		
			<rect x="68.125" y="47.365" display="inline" fill="none" stroke="#000000" stroke-width="4" stroke-miterlimit="10" width="121.156" height="41.333"/>
		
			<rect x="68.125" y="98.297" display="inline" fill="none" stroke="#000000" stroke-width="4" stroke-miterlimit="10" width="28.268" height="18.288"/>
		
			<line display="inline" fill="none" stroke="#000000" stroke-width="4" stroke-miterlimit="10" x1="102.414" y1="98.297" x2="125.274" y2="98.297"/>
		
			<line display="inline" fill="none" stroke="#000000" stroke-width="4" stroke-miterlimit="10" x1="102.414" y1="107.44" x2="125.274" y2="107.44"/>
		
			<line display="inline" fill="none" stroke="#000000" stroke-width="4" stroke-miterlimit="10" x1="103.039" y1="116.584" x2="125.899" y2="116.584"/>
		
			<rect x="65.839" y="27.432" display="inline" fill="none" stroke="#000000" stroke-miterlimit="10" width="4.572" height="4.572"/>
		
			<rect x="74.983" y="27.432" display="inline" fill="none" stroke="#000000" stroke-miterlimit="10" width="4.572" height="4.572"/>
		
			<rect x="84.127" y="27.432" display="inline" fill="none" stroke="#000000" stroke-miterlimit="10" width="4.572" height="4.572"/>
		
			<line display="inline" fill="none" stroke="#000000" stroke-width="4" stroke-miterlimit="10" x1="77.269" y1="80.365" x2="176.06" y2="80.365"/>
		
			<rect x="87.259" y="61.115" display="inline" fill="none" stroke="#000000" stroke-width="4" stroke-miterlimit="10" width="29.051" height="18"/>
		
			<rect x="116.56" y="65.615" display="inline" fill="none" stroke="#000000" stroke-width="4" stroke-miterlimit="10" width="22.75" height="14.75"/>
		
			<rect x="139.31" y="55.115" display="inline" fill="none" stroke="#000000" stroke-width="4" stroke-miterlimit="10" width="20.25" height="24.75"/>
		
			<rect x="136.628" y="102.865" display="inline" fill="none" stroke="#000000" stroke-width="4" stroke-miterlimit="10" width="10.863" height="10.863"/>
		
			<rect x="156.628" y="102.865" display="inline" fill="none" stroke="#000000" stroke-width="4" stroke-miterlimit="10" width="10.863" height="10.863"/>
		
			<rect x="176.628" y="102.865" display="inline" fill="none" stroke="#000000" stroke-width="4" stroke-miterlimit="10" width="10.863" height="10.863"/>
		
			<rect x="59.727" y="20.365" display="inline" fill="none" stroke="#000000" stroke-width="4" stroke-miterlimit="10" width="138" height="104"/>
	</g>
	<g id="Layer_5">
		<rect x="165.791" y="2" fill="none" stroke="#000000" stroke-width="4" stroke-miterlimit="10" width="18.918" height="137.158"/>
		<line fill="none" stroke="#000000" stroke-width="4" stroke-miterlimit="10" x1="174.81" y1="15.74" x2="184.709" y2="15.74"/>
		<line fill="none" stroke="#000000" stroke-width="4" stroke-miterlimit="10" x1="174.81" y1="29.74" x2="184.709" y2="29.74"/>
		<line fill="none" stroke="#000000" stroke-width="4" stroke-miterlimit="10" x1="174.81" y1="43.74" x2="184.709" y2="43.74"/>
		<line fill="none" stroke="#000000" stroke-width="4" stroke-miterlimit="10" x1="174.81" y1="57.74" x2="184.709" y2="57.74"/>
		<line fill="none" stroke="#000000" stroke-width="4" stroke-miterlimit="10" x1="174.81" y1="70.74" x2="184.709" y2="70.74"/>
		<line fill="none" stroke="#000000" stroke-width="4" stroke-miterlimit="10" x1="174.81" y1="84.74" x2="184.709" y2="84.74"/>
		<line fill="none" stroke="#000000" stroke-width="4" stroke-miterlimit="10" x1="174.81" y1="98.74" x2="184.709" y2="98.74"/>
		<line fill="none" stroke="#000000" stroke-width="4" stroke-miterlimit="10" x1="174.81" y1="112.74" x2="184.709" y2="112.74"/>
		<line fill="none" stroke="#000000" stroke-width="4" stroke-miterlimit="10" x1="174.81" y1="126.74" x2="184.709" y2="126.74"/>
	</g>
</g>
</svg>
