<?xml version="1.0" encoding="iso-8859-1"?>
<!-- Generator: Adobe Illustrator 18.0.0, SVG Export Plug-In . SVG Version: 6.00 Build 0)  -->
<!DOCTYPE svg PUBLIC "-//W3C//DTD SVG 1.1//EN" "http://www.w3.org/Graphics/SVG/1.1/DTD/svg11.dtd">
<svg version="1.1" id="Capa_1" xmlns="http://www.w3.org/2000/svg" xmlns:xlink="http://www.w3.org/1999/xlink" x="0px" y="0px" fill="white"
	 viewBox="0 0 325.592 325.592" style="enable-background:new 0 0 325.592 325.592;" xml:space="preserve">
<g>
	<g>
		<path d="M129.532,225.558c-0.133-0.919-0.625-1.747-1.368-2.303l-37.7-28.193l37.7-28.193c0.743-0.556,1.235-1.384,1.368-2.303
			c0.132-0.919-0.105-1.852-0.662-2.597l-5.989-8.008c-1.159-1.548-3.351-1.865-4.899-0.706l-52.157,39.004
			c-0.883,0.66-1.404,1.699-1.404,2.803s0.521,2.143,1.404,2.803l52.157,39.004c0.628,0.471,1.364,0.697,2.093,0.697
			c1.066,0,2.119-0.484,2.806-1.403l5.989-8.008C129.426,227.41,129.664,226.477,129.532,225.558z"/>
		<path d="M259.766,192.259l-52.155-39.004c-1.548-1.158-3.74-0.841-4.898,0.706l-5.989,8.008c-0.556,0.744-0.794,1.678-0.662,2.597
			c0.133,0.918,0.624,1.747,1.368,2.303l37.699,28.193l-37.699,28.193c-0.744,0.556-1.235,1.385-1.368,2.303
			c-0.132,0.919,0.105,1.853,0.662,2.597l5.989,8.008c0.688,0.919,1.74,1.403,2.806,1.403c0.729,0,1.464-0.227,2.093-0.697
			l52.155-39.004c0.883-0.66,1.404-1.699,1.404-2.803S260.649,192.919,259.766,192.259z"/>
	</g>
</g>
<g>
</g>
<g>
</g>
<g>
</g>
<g>
</g>
<g>
</g>
<g>
</g>
<g>
</g>
<g>
</g>
<g>
</g>
<g>
</g>
<g>
</g>
<g>
</g>
<g>
</g>
<g>
</g>
<g>
</g>
</svg>
